<?xml version="1.0" standalone="no"?><svg xmlns="http://www.w3.org/2000/svg" viewBox="0 0 1440 320"><path fill="#101313" fill-opacity="1" d="M0,224L20,202.7C40,181,80,139,120,112C160,85,200,75,240,101.3C280,128,320,192,360,218.7C400,245,440,235,480,218.7C520,203,560,181,600,176C640,171,680,181,720,165.3C760,149,800,107,840,128C880,149,920,235,960,245.3C1000,256,1040,192,1080,186.7C1120,181,1160,235,1200,245.3C1240,256,1280,224,1320,218.7C1360,213,1400,235,1420,245.3L1440,256L1440,320L1420,320C1400,320,1360,320,1320,320C1280,320,1240,320,1200,320C1160,320,1120,320,1080,320C1040,320,1000,320,960,320C920,320,880,320,840,320C800,320,760,320,720,320C680,320,640,320,600,320C560,320,520,320,480,320C440,320,400,320,360,320C320,320,280,320,240,320C200,320,160,320,120,320C80,320,40,320,20,320L0,320Z"></path></svg>