<?xml version="1.0" standalone="no"?><svg xmlns="http://www.w3.org/2000/svg" viewBox="0 0 1440 320"><path fill="#101313" fill-opacity="1" d="M0,224L20,202.7C40,181,80,139,120,112C160,85,200,75,240,101.3C280,128,320,192,360,218.7C400,245,440,235,480,218.7C520,203,560,181,600,176C640,171,680,181,720,165.3C760,149,800,107,840,128C880,149,920,235,960,245.3C1000,256,1040,192,1080,186.7C1120,181,1160,235,1200,245.3C1240,256,1280,224,1320,218.7C1360,213,1400,235,1420,245.3L1440,256L1440,0L1420,0C1400,0,1360,0,1320,0C1280,0,1240,0,1200,0C1160,0,1120,0,1080,0C1040,0,1000,0,960,0C920,0,880,0,840,0C800,0,760,0,720,0C680,0,640,0,600,0C560,0,520,0,480,0C440,0,400,0,360,0C320,0,280,0,240,0C200,0,160,0,120,0C80,0,40,0,20,0L0,0Z"></path></svg>